<svg xmlns="http://www.w3.org/2000/svg" data-name="Layer 1" viewBox="0 0 48 48" id="home"><path fill="#55aae1" d="M44 22a1 1 0 0 1-.62-.22l-18.75-15a1 1 0 0 0-1.25 0l-18.76 15a1 1 0 1 1-1.24-1.56l18.75-15a3 3 0 0 1 3.74 0l18.75 15a1 1 0 0 1 .16 1.4A1 1 0 0 1 44 22Z"></path><path fill="#55aae1" d="M28 44h-8a1 1 0 0 1-1-1V25a3 3 0 0 1 3-3h4a3 3 0 0 1 3 3v18a1 1 0 0 1-1 1Zm-7-2h6V25a1 1 0 0 0-1-1h-4a1 1 0 0 0-1 1Z"></path><path fill="#55aae1" d="M37 44H11a3 3 0 0 1-3-3V17.16h2V41a1 1 0 0 0 1 1h26a1 1 0 0 0 1-1V17.16h2V41a3 3 0 0 1-3 3Z"></path><path fill="#55aae1" d="M37 15h-1v22a3 3 0 0 1-3 3H8v1a3 3 0 0 0 3 3h26a3 3 0 0 0 3-3V18a3 3 0 0 0-3-3Z" opacity=".35"></path><path fill="#55aae1" d="M39 14a1 1 0 0 1-1-1V7a1 1 0 0 1 2 0v6a1 1 0 0 1-1 1Z"></path><path fill="#55aae1" d="M39 8h-8a1 1 0 0 1 0-2h8a1 1 0 0 1 0 2Z"></path></svg>