<svg xmlns="http://www.w3.org/2000/svg" xmlns:xlink="http://www.w3.org/1999/xlink" version="1.1" width="256" height="256" viewBox="0 0 256 256" xml:space="preserve">

<defs>
</defs>
<g style="stroke: none; stroke-width: 0; stroke-dasharray: none; stroke-linecap: butt; stroke-linejoin: miter; stroke-miterlimit: 10; fill: none; fill-rule: nonzero; opacity: 1;" transform="translate(1.4065934065934016 1.4065934065934016) scale(2.81 2.81)" >
	<path d="M 53.819 77.05 H 7.742 c -0.552 0 -1 -0.447 -1 -1 V 1 c 0 -0.552 0.448 -1 1 -1 h 59.239 c 0.553 0 1 0.448 1 1 v 49.387 c 0 0.553 -0.447 1 -1 1 s -1 -0.447 -1 -1 V 2 H 8.742 v 73.05 h 45.077 c 0.553 0 1 0.447 1 1 S 54.372 77.05 53.819 77.05 z" style="stroke: none; stroke-width: 1; stroke-dasharray: none; stroke-linecap: butt; stroke-linejoin: miter; stroke-miterlimit: 10; fill: rgb(0,0,0); fill-rule: nonzero; opacity: 1;" transform=" matrix(1 0 0 1 0 0) " stroke-linecap="round" />
	<path d="M 82.258 78.669 h -1.477 c 0.257 -2.455 0.625 -4.641 0.991 -6.748 c 0.758 -4.382 1.413 -8.166 0.737 -12.88 c -0.463 -3.22 -2.624 -5.962 -5.596 -7.14 l -2.402 -1.086 c -0.503 -0.228 -1.096 -0.004 -1.323 0.499 c -0.228 0.504 -0.004 1.096 0.499 1.323 l 2.446 1.104 c 2.351 0.932 4.035 3.071 4.396 5.583 c 0.632 4.4 0.002 8.04 -0.728 12.255 c -0.381 2.199 -0.766 4.485 -1.03 7.089 H 62.036 c 0.692 -3.253 2.249 -6.153 4.467 -8.252 c 0.198 -0.188 0.312 -0.449 0.313 -0.723 s -0.109 -0.535 -0.307 -0.725 l -5.103 -4.907 c -0.413 -0.361 -0.887 -0.633 -1.408 -0.809 c -0.042 -0.014 -0.084 -0.024 -0.127 -0.033 l -5.06 -0.986 c -1.533 -0.546 -2.41 -2.14 -2.043 -3.733 l 0.156 -0.68 c 0.374 -1.625 1.963 -2.697 3.671 -2.436 l 4.889 0.426 c 0.321 0.05 0.633 0.174 0.895 0.356 l 9.448 6.657 c 0.451 0.317 1.076 0.21 1.394 -0.241 c 0.318 -0.451 0.21 -1.075 -0.241 -1.394 l -9.454 -6.661 c -0.516 -0.358 -1.116 -0.599 -1.802 -0.702 l -4.889 -0.426 c -2.676 -0.418 -5.251 1.332 -5.859 3.972 l -0.156 0.68 c -0.604 2.621 0.864 5.242 3.415 6.098 c 0.041 0.014 0.083 0.025 0.126 0.033 l 5.058 0.986 c 0.247 0.091 0.471 0.223 0.637 0.366 l 4.338 4.173 c -2.211 2.39 -3.736 5.516 -4.392 8.96 h -1.776 c -0.553 0 -1 0.447 -1 1 V 89 c 0 0.553 0.447 1 1 1 h 24.033 c 0.553 0 1 -0.447 1 -1 v -9.331 C 83.258 79.116 82.811 78.669 82.258 78.669 z M 81.258 88 H 59.225 v -7.331 h 22.033 V 88 z" style="stroke: none; stroke-width: 1; stroke-dasharray: none; stroke-linecap: butt; stroke-linejoin: miter; stroke-miterlimit: 10; fill: rgb(0,0,0); fill-rule: nonzero; opacity: 1;" transform=" matrix(1 0 0 1 0 0) " stroke-linecap="round" />
	<path d="M 22.988 20.033 L 21 19.307 c -0.872 -0.256 -1.553 -0.887 -1.87 -1.732 c -0.553 -1.475 0.197 -3.125 1.671 -3.678 c 0.715 -0.269 1.49 -0.242 2.185 0.074 c 0.695 0.316 1.225 0.883 1.493 1.598 c 0.195 0.517 0.771 0.777 1.288 0.585 c 0.517 -0.194 0.779 -0.771 0.585 -1.288 c -0.62 -1.651 -2.052 -2.75 -3.671 -3.052 v -1.25 c 0 -0.552 -0.448 -1 -1 -1 s -1 0.448 -1 1 v 1.306 c -0.195 0.046 -0.39 0.082 -0.582 0.154 c -2.507 0.941 -3.782 3.746 -2.842 6.253 c 0.54 1.439 1.699 2.515 3.117 2.929 l 1.989 0.726 c 0.871 0.256 1.553 0.887 1.87 1.732 c 0.553 1.475 -0.197 3.125 -1.672 3.678 c -0.714 0.269 -1.491 0.242 -2.185 -0.074 c -0.695 -0.315 -1.225 -0.883 -1.492 -1.597 c -0.194 -0.517 -0.77 -0.778 -1.288 -0.585 c -0.517 0.194 -0.779 0.771 -0.585 1.288 c 0.456 1.214 1.356 2.179 2.538 2.716 c 0.367 0.167 0.747 0.272 1.133 0.344 v 1.242 c 0 0.552 0.448 1 1 1 s 1 -0.448 1 -1 v -1.299 c 0.195 -0.047 0.391 -0.089 0.582 -0.161 c 2.507 -0.94 3.782 -3.746 2.842 -6.253 C 25.565 21.522 24.406 20.447 22.988 20.033 z" style="stroke: none; stroke-width: 1; stroke-dasharray: none; stroke-linecap: butt; stroke-linejoin: miter; stroke-miterlimit: 10; fill: rgb(0,0,0); fill-rule: nonzero; opacity: 1;" transform=" matrix(1 0 0 1 0 0) " stroke-linecap="round" />
	<path d="M 57.506 28.597 h -3.12 V 12.233 c 0 -0.552 -0.447 -1 -1 -1 s -1 0.448 -1 1 v 16.364 h -4.294 V 18.526 c 0 -0.552 -0.447 -1 -1 -1 s -1 0.448 -1 1 v 10.071 h -4.293 v -5.036 c 0 -0.552 -0.448 -1 -1 -1 s -1 0.448 -1 1 v 5.036 h -2.972 c -0.552 0 -1 0.448 -1 1 s 0.448 1 1 1 h 20.679 c 0.553 0 1 -0.448 1 -1 S 58.059 28.597 57.506 28.597 z" style="stroke: none; stroke-width: 1; stroke-dasharray: none; stroke-linecap: butt; stroke-linejoin: miter; stroke-miterlimit: 10; fill: rgb(0,0,0); fill-rule: nonzero; opacity: 1;" transform=" matrix(1 0 0 1 0 0) " stroke-linecap="round" />
	<path d="M 20.731 44.219 h -2.785 c -0.552 0 -1 -0.448 -1 -1 s 0.448 -1 1 -1 h 2.785 c 0.552 0 1 0.448 1 1 S 21.284 44.219 20.731 44.219 z" style="stroke: none; stroke-width: 1; stroke-dasharray: none; stroke-linecap: butt; stroke-linejoin: miter; stroke-miterlimit: 10; fill: rgb(0,0,0); fill-rule: nonzero; opacity: 1;" transform=" matrix(1 0 0 1 0 0) " stroke-linecap="round" />
	<path d="M 20.731 53.03 h -2.785 c -0.552 0 -1 -0.447 -1 -1 s 0.448 -1 1 -1 h 2.785 c 0.552 0 1 0.447 1 1 S 21.284 53.03 20.731 53.03 z" style="stroke: none; stroke-width: 1; stroke-dasharray: none; stroke-linecap: butt; stroke-linejoin: miter; stroke-miterlimit: 10; fill: rgb(0,0,0); fill-rule: nonzero; opacity: 1;" transform=" matrix(1 0 0 1 0 0) " stroke-linecap="round" />
	<path d="M 20.731 61.842 h -2.785 c -0.552 0 -1 -0.447 -1 -1 s 0.448 -1 1 -1 h 2.785 c 0.552 0 1 0.447 1 1 S 21.284 61.842 20.731 61.842 z" style="stroke: none; stroke-width: 1; stroke-dasharray: none; stroke-linecap: butt; stroke-linejoin: miter; stroke-miterlimit: 10; fill: rgb(0,0,0); fill-rule: nonzero; opacity: 1;" transform=" matrix(1 0 0 1 0 0) " stroke-linecap="round" />
	<path d="M 58.493 44.219 H 29.275 c -0.552 0 -1 -0.448 -1 -1 s 0.448 -1 1 -1 h 29.218 c 0.553 0 1 0.448 1 1 S 59.046 44.219 58.493 44.219 z" style="stroke: none; stroke-width: 1; stroke-dasharray: none; stroke-linecap: butt; stroke-linejoin: miter; stroke-miterlimit: 10; fill: rgb(0,0,0); fill-rule: nonzero; opacity: 1;" transform=" matrix(1 0 0 1 0 0) " stroke-linecap="round" />
	<path d="M 45.906 53.03 H 29.275 c -0.552 0 -1 -0.447 -1 -1 s 0.448 -1 1 -1 h 16.631 c 0.552 0 1 0.447 1 1 S 46.458 53.03 45.906 53.03 z" style="stroke: none; stroke-width: 1; stroke-dasharray: none; stroke-linecap: butt; stroke-linejoin: miter; stroke-miterlimit: 10; fill: rgb(0,0,0); fill-rule: nonzero; opacity: 1;" transform=" matrix(1 0 0 1 0 0) " stroke-linecap="round" />
	<path d="M 42.13 61.842 H 29.275 c -0.552 0 -1 -0.447 -1 -1 s 0.448 -1 1 -1 H 42.13 c 0.552 0 1 0.447 1 1 S 42.682 61.842 42.13 61.842 z" style="stroke: none; stroke-width: 1; stroke-dasharray: none; stroke-linecap: butt; stroke-linejoin: miter; stroke-miterlimit: 10; fill: rgb(0,0,0); fill-rule: nonzero; opacity: 1;" transform=" matrix(1 0 0 1 0 0) " stroke-linecap="round" />
</g>
</svg>