<svg xmlns="http://www.w3.org/2000/svg" xmlns:xlink="http://www.w3.org/1999/xlink" version="1.1" width="256" height="256" viewBox="0 0 256 256" xml:space="preserve">

<defs>
</defs>
<g style="stroke: none; stroke-width: 0; stroke-dasharray: none; stroke-linecap: butt; stroke-linejoin: miter; stroke-miterlimit: 10; fill: none; fill-rule: nonzero; opacity: 1;" transform="translate(1.4065934065934016 1.4065934065934016) scale(2.81 2.81)" >
	<path d="M 67.806 64.121 L 63.213 43.01 l -4.594 -21.111 L 54.026 0.788 c -0.057 -0.259 -0.214 -0.485 -0.437 -0.629 c -0.225 -0.144 -0.497 -0.193 -0.754 -0.136 l -21.11 4.593 c -0.54 0.117 -0.882 0.65 -0.765 1.189 l 4.593 21.111 l 4.593 21.112 l 4.593 21.111 c 0.102 0.468 0.516 0.787 0.976 0.787 c 0.07 0 0.142 -0.007 0.213 -0.022 l 21.112 -4.593 C 67.58 65.193 67.923 64.661 67.806 64.121 z M 55.41 52.852 l -4.651 1.013 l -1.48 -6.8 l 2.614 -0.569 l 2.038 -0.443 L 55.41 52.852 z M 50.816 31.741 l -4.651 1.012 l -1.479 -6.799 l 4.651 -1.012 L 50.816 31.741 z M 46.224 10.63 l -4.651 1.012 l -1.479 -6.8 l 4.651 -1.012 L 46.224 10.63 z M 38.139 5.268 l 1.692 7.777 c 0.056 0.259 0.213 0.485 0.436 0.629 c 0.163 0.104 0.35 0.159 0.541 0.159 c 0.071 0 0.142 -0.007 0.213 -0.023 l 6.605 -1.438 c 0.539 -0.117 0.882 -0.65 0.765 -1.189 l -1.692 -7.777 l 5.585 -1.215 l 4.168 19.157 l -6.563 1.428 c 0 0 0 0 -0.001 0 l -3.865 0.841 l -8.728 1.899 L 33.128 6.358 L 38.139 5.268 z M 42.732 26.379 l 1.692 7.777 c 0.056 0.259 0.213 0.485 0.437 0.629 c 0.163 0.104 0.35 0.159 0.541 0.159 c 0.071 0 0.142 -0.007 0.212 -0.023 l 6.605 -1.437 c 0.539 -0.117 0.882 -0.65 0.765 -1.189 l -1.692 -7.777 l 5.585 -1.215 l 4.169 19.157 l -0.815 0.177 l -5.748 1.25 c 0 0 -0.001 0 -0.001 0 l -6.605 1.437 c 0 0 0 0 0 0 l -5.988 1.302 l -4.167 -19.156 L 42.732 26.379 z M 46.481 67.737 L 42.314 48.58 l 5.01 -1.09 l 1.693 7.777 c 0.103 0.468 0.517 0.787 0.977 0.787 c 0.07 0 0.142 -0.007 0.214 -0.022 l 6.605 -1.438 c 0.259 -0.057 0.485 -0.214 0.628 -0.437 c 0.144 -0.224 0.192 -0.494 0.137 -0.754 l -1.692 -7.776 l 5.586 -1.215 l 4.168 19.157 L 46.481 67.737 z" style="stroke: none; stroke-width: 1; stroke-dasharray: none; stroke-linecap: butt; stroke-linejoin: miter; stroke-miterlimit: 10; fill: rgb(0,0,0); fill-rule: nonzero; opacity: 1;" transform=" matrix(1 0 0 1 0 0) " stroke-linecap="round" />
	<path d="M 48.542 80.582 c -0.46 0 -0.874 -0.319 -0.977 -0.787 c -0.117 -0.54 0.226 -1.072 0.765 -1.19 l 24.083 -5.239 l -0.704 -3.235 l -25.11 5.464 c -0.544 0.115 -1.073 -0.226 -1.19 -0.765 c -0.118 -0.54 0.225 -1.072 0.764 -1.19 l 26.088 -5.676 c 0.258 -0.055 0.529 -0.008 0.754 0.137 c 0.223 0.143 0.38 0.369 0.437 0.628 l 1.129 5.189 c 0.117 0.54 -0.226 1.072 -0.765 1.19 l -25.059 5.452 C 48.684 80.575 48.612 80.582 48.542 80.582 z" style="stroke: none; stroke-width: 1; stroke-dasharray: none; stroke-linecap: butt; stroke-linejoin: miter; stroke-miterlimit: 10; fill: rgb(0,0,0); fill-rule: nonzero; opacity: 1;" transform=" matrix(1 0 0 1 0 0) " stroke-linecap="round" />
	<path d="M 37.24 90 c -3.662 0 -6.966 -2.548 -7.775 -6.268 c -0.452 -2.077 -0.068 -4.206 1.081 -5.994 c 1.149 -1.788 2.926 -3.021 5.003 -3.474 c 2.075 -0.449 4.205 -0.068 5.994 1.081 s 3.022 2.926 3.474 5.003 c 0.933 4.288 -1.796 8.535 -6.084 9.469 C 38.365 89.94 37.798 90 37.24 90 z M 37.253 76.081 c -0.425 0 -0.854 0.046 -1.279 0.139 c -1.555 0.338 -2.885 1.261 -3.746 2.6 c -0.86 1.339 -1.148 2.933 -0.81 4.487 c 0.698 3.21 3.879 5.259 7.088 4.556 c 3.21 -0.698 5.253 -3.878 4.555 -7.088 c -0.338 -1.556 -1.262 -2.886 -2.601 -3.746 C 39.489 76.403 38.382 76.081 37.253 76.081 z" style="stroke: none; stroke-width: 1; stroke-dasharray: none; stroke-linecap: butt; stroke-linejoin: miter; stroke-miterlimit: 10; fill: rgb(0,0,0); fill-rule: nonzero; opacity: 1;" transform=" matrix(1 0 0 1 0 0) " stroke-linecap="round" />
	<path d="M 37.24 83.04 c -0.27 0 -0.52 -0.101 -0.71 -0.29 c -0.09 -0.101 -0.16 -0.21 -0.21 -0.33 c -0.05 -0.12 -0.08 -0.25 -0.08 -0.38 s 0.03 -0.26 0.08 -0.38 s 0.12 -0.23 0.21 -0.33 c 0.1 -0.09 0.21 -0.16 0.33 -0.21 c 0.24 -0.101 0.52 -0.101 0.76 0 c 0.13 0.05 0.23 0.12 0.33 0.21 c 0.09 0.1 0.16 0.21 0.21 0.33 c 0.05 0.12 0.08 0.25 0.08 0.38 s -0.02 0.26 -0.07 0.38 c -0.06 0.13 -0.13 0.229 -0.22 0.33 c -0.1 0.09 -0.21 0.17 -0.33 0.22 C 37.5 83.019 37.37 83.04 37.24 83.04 z" style="stroke: none; stroke-width: 1; stroke-dasharray: none; stroke-linecap: butt; stroke-linejoin: miter; stroke-miterlimit: 10; fill: rgb(0,0,0); fill-rule: nonzero; opacity: 1;" transform=" matrix(1 0 0 1 0 0) " stroke-linecap="round" />
	<path d="M 34.776 71.719 c -0.46 0 -0.875 -0.319 -0.976 -0.787 L 23.057 21.548 l -7.216 -4.839 c -0.458 -0.308 -0.581 -0.929 -0.273 -1.387 l 0.633 -0.944 c 1.589 -2.371 4.809 -3.005 7.179 -1.416 l 5.873 3.938 c 0.22 0.148 0.373 0.377 0.424 0.638 c 0.008 0.041 0.013 0.082 0.016 0.124 l 11.475 52.742 c 0.118 0.54 -0.225 1.072 -0.765 1.19 c -0.539 0.115 -1.072 -0.226 -1.189 -0.765 L 27.792 18.329 l -5.527 -3.706 c -0.704 -0.473 -1.551 -0.642 -2.381 -0.478 c -0.832 0.164 -1.55 0.643 -2.022 1.347 l -0.076 0.113 l 6.721 4.506 c 0.214 0.144 0.365 0.365 0.42 0.618 l 10.829 49.776 c 0.118 0.54 -0.225 1.072 -0.765 1.19 C 34.919 71.712 34.847 71.719 34.776 71.719 z" style="stroke: none; stroke-width: 1; stroke-dasharray: none; stroke-linecap: butt; stroke-linejoin: miter; stroke-miterlimit: 10; fill: rgb(0,0,0); fill-rule: nonzero; opacity: 1;" transform=" matrix(1 0 0 1 0 0) " stroke-linecap="round" />
</g>
</svg>